<svg xmlns="http://www.w3.org/2000/svg" viewBox="0 0 24 24" fill="currentColor"><path d="M22,2V22H2V2H22m0-2H2A2,2,0,0,0,0,2V22a2,2,0,0,0,2,2H22a2,2,0,0,0,2-2V2a2,2,0,0,0-2-2Z"/><polygon points="23 5 2 5 2 7 23 7 23 5 23 5"/><polygon points="18 17 6 17 6 19 18 19 18 17 18 17"/><rect x="11" y="19" width="2" height="3"/><path d="M15,6a2.0023,2.0023,0,0,0-2-2H11a1.99474,1.99474,0,0,0-.542,3.91589L12,11l1.542-3.08411A1.99665,1.99665,0,0,0,15,6ZM13,7H11a1,1,0,0,1,0-2h2a1,1,0,0,1,0,2Z"/><circle cx="12" cy="6" r="1" fill="#fff"/></svg>