<svg xmlns="http://www.w3.org/2000/svg" viewBox="0 0 24 24" fill="currentColor"><rect x="5.00373" y="5.99902" width="16" height="2"/><rect x="7.00373" y="2" width="12" height="2"/><path d="M20.99677,9.991H5.00323A2.008,2.008,0,0,0,3,12.0036v7.97479A2.00792,2.00792,0,0,0,5.00323,21.991H20.99677A2.008,2.008,0,0,0,23,19.97839V12.0036A2.008,2.008,0,0,0,20.99677,9.991ZM21,20H5V12H21Z"/><polygon points="12.004 18.991 14.004 18.991 14.004 17.002 16.004 17.002 16.004 14.998 14.004 14.998 14.004 12.991 12.004 12.991 12.004 15.001 10.004 15.001 10.004 17.002 12.004 17.002 12.004 18.991"/></svg>