<svg xmlns="http://www.w3.org/2000/svg" viewBox="0 0 24 24" fill="currentColor"><path d="M11.5,3.311,19,7.6531v8.6938L11.5,20.689,4,16.3469V7.6531L11.5,3.311M11.5,1,2,6.5v11L11.5,23,21,17.5V6.5L11.5,1Z"/><path d="M11.5,5a.5.5,0,1,0,.5.5.5.5,0,0,0-.5-.5Z"/><path d="M11.5,8.5A.5.5,0,1,0,12,9a.5.5,0,0,0-.5-.5Z"/><path d="M11.5,12a.5.5,0,1,0,.5.5.5.5,0,0,0-.5-.5Z"/><path d="M7.99952,12.99988a.5.5,0,1,0,.422.23109.49766.49766,0,0,0-.422-.23109Z"/><path d="M5.4994,15.00013a.5.5,0,1,0,.422.23109.49766.49766,0,0,0-.422-.23109Z"/><path d="M15.00041,12.99994a.50009.50009,0,1,0,.2685.07857.49959.49959,0,0,0-.2685-.07857Z"/><path d="M17.5351,15.00013a.50009.50009,0,1,0,.2685.07857.4996.4996,0,0,0-.2685-.07857Z"/><polygon points="3.382 6.225 2.382 7.957 9.409 12.014 10.409 10.282 3.382 6.225 3.382 6.225"/><polygon points="12.5 17.016 10.5 17.016 10.5 22.157 12.5 22.157 12.5 17.016 12.5 17.016"/></svg>