<svg xmlns="http://www.w3.org/2000/svg" viewBox="0 0 24 24" fill="currentColor"><path d="M20,6.14746A4.97289,4.97289,0,0,0,19.35,6.04,7.49246,7.49246,0,0,0,5.35,4.04,5.9039,5.9039,0,0,0,4,4.36505,5.97992,5.97992,0,0,0,4,15.65033V13.44556A3.97628,3.97628,0,0,1,4,6.5448,3.92951,3.92951,0,0,1,5.56,6.03L6.63,5.92l.5-.95A5.48711,5.48711,0,0,1,17.39,6.43l.3,1.5,1.53.11a2.91321,2.91321,0,0,1,.78.17108,2.96258,2.96258,0,0,1,0,5.6037v2.08435a4.9717,4.9717,0,0,0,0-9.75165Z"/><path d="M12,11c-3.81818,0-6,.75835-6,2.16667v8.66666C6,23.24165,9.08729,24,12,24c2.91278,0,6-.75835,6-2.16667V13.16667C18,11.75835,15.81818,11,12,11Zm0,1c2.71123,0,4.90909.81087,4.90909,1.70833s-2.19786,1.625-4.90909,1.625-4.90909-.72753-4.90909-1.625S9.28877,12,12,12ZM7.09091,19.92441v-1.1437A12.02567,12.02567,0,0,0,12,19.66667a12.02623,12.02623,0,0,0,4.90909-.8859v1.179a12.58847,12.58847,0,0,1-4.909.79022A12.77627,12.77627,0,0,1,7.09091,19.92441Z"/></svg>