<svg xmlns="http://www.w3.org/2000/svg" viewBox="0 0 24 24" fill="currentColor"><path d="M22.96527,8A5.34924,5.34924,0,0,0,19.35,6.04,7.49246,7.49246,0,0,0,5.35,4.04,5.9039,5.9039,0,0,0,4,4.36505,5.97992,5.97992,0,0,0,4,15.65033V8H20v7.89911A5.00336,5.00336,0,0,0,24,11,4.90837,4.90837,0,0,0,22.96527,8Z"/><path d="M18.01967,22.00328c0,1.10276-2.68628,1.99672-6,1.99672s-6-.894-6-1.99672V20.00656c0,1.10276,2.68628,1.99672,6,1.99672s6-.894,6-1.99672"/><path d="M12.01971,16.68424c-3.31109,0-6-.89852-6-1.99671v3.96492c0,1.09818,2.68893,1.9967,6,1.9967s6-.89852,6-1.9967V14.68753C18.01967,15.78572,15.3308,16.68424,12.01971,16.68424Z"/><path d="M18.01967,11.99672c0-1.10276-2.68628-1.99672-6-1.99672s-6,.894-6,1.99672v1.33115c0,1.10276,2.68628,1.99672,6,1.99672s6-.894,6-1.99672"/></svg>