<svg xmlns="http://www.w3.org/2000/svg" viewBox="0 0 24 24" fill="currentColor"><path d="M6,10v5H18V10Zm7,3H7V12h6Zm1.5,0a.5.5,0,1,1,.5-.5A.5.5,0,0,1,14.5,13Zm2,0a.5.5,0,1,1,.5-.5A.5.5,0,0,1,16.5,13Z"/><path d="M6,17v5H18V17Zm7,3H7V19h6Zm1.5,0a.5.5,0,1,1,.5-.5A.5.5,0,0,1,14.5,20Zm2,0a.5.5,0,1,1,.5-.5A.5.5,0,0,1,16.5,20Z"/><path d="M22.96527,8A5.34924,5.34924,0,0,0,19.35,6.04,7.49246,7.49246,0,0,0,5.35,4.04,5.9039,5.9039,0,0,0,4,4.36505,5.97992,5.97992,0,0,0,4,15.65033V8H20v7.89911A5.00336,5.00336,0,0,0,24,11,4.90837,4.90837,0,0,0,22.96527,8Z"/></svg>