<svg xmlns="http://www.w3.org/2000/svg" viewBox="0 0 24 24" fill="currentColor"><path d="M1,1V11H23V1ZM13,7H4V5h9Zm3,0a1,1,0,1,1,1-1A1,1,0,0,1,16,7Zm3,0a1,1,0,1,1,1-1A1,1,0,0,1,19,7Z"/><path d="M22.69,18.37l1.14-1-1-1.73-1.45.49a3.64664,3.64664,0,0,0-1.08-.63L20,14H18l-.3,1.49a3.64645,3.64645,0,0,0-1.08.63l-1.45-.49-1,1.73,1.14,1a3.33714,3.33714,0,0,0,0,1.26l-1.14,1,1,1.73,1.45-.49a3.64535,3.64535,0,0,0,1.08.63L18,24h2l.3-1.49a3.64645,3.64645,0,0,0,1.08-.63l1.45.49,1-1.73-1.14-1A3.38931,3.38931,0,0,0,22.69,18.37ZM19,21a2,2,0,1,1,2-2A2.00591,2.00591,0,0,1,19,21Z"/><path d="M12,19H4V17h8.2937A7.00761,7.00761,0,0,1,15.408,13H1V23H13.26A6.96194,6.96194,0,0,1,12,19Z"/></svg>