<svg xmlns="http://www.w3.org/2000/svg" viewBox="0 0 24 24" fill="currentColor"><path d="M21.94934,9A9.99941,9.99941,0,0,0,2.05066,9h.24762l4.16211,6.01575.82232-.569L3.51422,9H5.876a1.25,1.25,0,0,1,2.5,0h.42169l1.24762,4L11,12.70221,9.84521,9H10.751A1.25,1.25,0,1,1,13.251,9h.90381L13,12.70221,13.95465,13l1.24768-4H15.626A1.25,1.25,0,1,1,18.126,9h2.34253L16.7,14.44678l.82233.569L21.68451,9ZM16.876,5.75a3.22978,3.22978,0,0,0-2.4375,1.12317,3.20645,3.20645,0,0,0-4.87494,0,3.207,3.207,0,0,0-4.95825.101,7.98381,7.98381,0,0,1,14.78778-.00445A3.23123,3.23123,0,0,0,16.876,5.75Z"/><polygon points="11 15.405 9.586 14 5.968 17.595 5.968 17.595 4.554 19 9.586 24 11 22.595 7.382 19 11 15.405"/><polygon points="13.021 22.595 14.435 24 18.053 20.405 18.053 20.405 19.467 19 14.435 14 13.021 15.405 16.639 19 13.021 22.595"/></svg>