<svg xmlns="http://www.w3.org/2000/svg" viewBox="0 0 24 24" fill="currentColor"><path d="M21.95,9h-.27l-4.16,6.02L16.7,14.45,20.47,9H18.13a1.25,1.25,0,1,0-2.5,0H15.2l-1.25,4L13,12.7,14.15,9h-.9a1.25,1.25,0,0,0-2.5,0h-.9L11,12.7l-.95.3L8.8,9H8.38a1.25,1.25,0,0,0-2.5,0H3.51l3.77,5.45L6.46,15.02,2.3,9H2.05a10.00015,10.00015,0,0,1,19.9,0Z"/><polygon points="11 15.405 9.586 14 5.968 17.595 5.968 17.595 4.554 19 9.586 24 11 22.595 7.382 19 11 15.405"/><polygon points="13.021 22.595 14.435 24 18.053 20.405 18.053 20.405 19.467 19 14.435 14 13.021 15.405 16.639 19 13.021 22.595"/></svg>