<svg xmlns="http://www.w3.org/2000/svg" viewBox="0 0 24 24" fill="currentColor"><polygon points="20 21 18 21 18 18.41 15.41 21 14 19.59 16.59 17 14 17 14 15 20 15 20 21"/><path d="M5.5,12C2,12,0,12.7,0,14v8c0,1.3,2.83,2,5.5,2,2.67,0,5.5-.7,5.5-2V14C11,12.7,9,12,5.5,12Zm0,1c2.48529,0,4.5.67157,4.5,1.5S7.98529,16,5.5,16,1,15.32843,1,14.5,3.01471,13,5.5,13ZM1,20.23792V19.18219A10.95628,10.95628,0,0,0,5.5,20a10.95694,10.95694,0,0,0,4.5-.81775v1.08832A11.46834,11.46834,0,0,1,5.50006,21,11.63978,11.63978,0,0,1,1,20.23792Z"/><path d="M18.5,0C15,0,13,.7,13,2v8c0,1.3,2.83,2,5.5,2,2.67,0,5.5-.7,5.5-2V2C24,.7,22,0,18.5,0Zm0,1c2.48529,0,4.5.67157,4.5,1.5S20.98529,4,18.5,4,14,3.32843,14,2.5,16.01471,1,18.5,1ZM14,8.23792V7.18219A10.95628,10.95628,0,0,0,18.5,8,10.95694,10.95694,0,0,0,23,7.18225V8.27057A11.46834,11.46834,0,0,1,18.50006,9,11.63978,11.63978,0,0,1,14,8.23792Z"/></svg>