<svg xmlns="http://www.w3.org/2000/svg" viewBox="0 0 24 24" fill="currentColor"><path d="M12,1.5C7.39453,1.5,2.5,2.72656,2.5,5V19c0,2.27344,4.89453,3.5,9.5,3.5s9.5-1.22656,9.5-3.5V5C21.5,2.72656,16.60547,1.5,12,1.5Zm0,16C6.7334,17.5,3.5,16.044,3.5,15V13.63281C5.166,14.85449,8.65918,15.5,12,15.5s6.834-.64551,8.5-1.86719V15C20.5,16.044,17.2666,17.5,12,17.5Zm0-4c-5.2666,0-8.5-1.456-8.5-2.5V9.63232C5.166,10.85449,8.65918,11.5,12,11.5s6.834-.64551,8.5-1.86768V11C20.5,12.044,17.2666,13.5,12,13.5ZM20.5,19c0,1.04395-3.2334,2.5-8.5,2.5S3.5,20.044,3.5,19V17.63281C5.166,18.85449,8.65918,19.5,12,19.5s6.834-.64551,8.5-1.86719ZM12,9.5C6.7334,9.5,3.5,8.044,3.5,7V5c0-1.044,3.2334-2.5,8.5-2.5s8.5,1.456,8.5,2.5V7C20.5,8.044,17.2666,9.5,12,9.5Z"/></svg>