<svg xmlns="http://www.w3.org/2000/svg" viewBox="0 0 24 24" fill="currentColor"><path d="M17.88544,23.55261c0-.68469.22912-.92206.61456-.92206.39581-.00915.625.23737.625.92206V24H20v-.33783C20,21.92755,18.63544,22,18.5,22c-.14581,0-1.5-.08154-1.5,1.66217V24h.88544Z"/><path d="M21,5.6622v.6756C21,8.07243,22.36458,8,22.5,8c.14583,0,1.5.08156,1.5-1.6622V5.6622C24,3.92757,22.63542,4,22.5,4,22.35417,4,21,3.91844,21,5.6622Zm2.125-.10955v.88557c0,.703-.21875.94036-.61458.94036s-.625-.23738-.625-.94036V5.55265c0-.68473.22916-.9221.61458-.9221C22.89583,4.62143,23.125,4.86792,23.125,5.55265Z"/><path d="M21,12.6623v.6754C21,15.07181,22.36458,15,22.5,15c.14583,0,1.5.08094,1.5-1.6623v-.6754C24,10.92819,22.63542,11,22.5,11,22.35417,11,21,10.91906,21,12.6623Zm2.125-.10952v.88531c0,.70277-.21875.94007-.61458.94007s-.625-.2373-.625-.94007v-.88531c0-.68452.22916-.92182.61458-.92182C22.89583,11.62184,23.125,11.86826,23.125,12.55278Z"/><path d="M21,19.6622v.6756C21,22.07243,22.36458,22,22.5,22c.14583,0,1.5.08156,1.5-1.6622v-.6756C24,17.92757,22.63542,18,22.5,18,22.35417,18,21,17.91844,21,19.6622Zm2.125-.10955v.88557c0,.703-.21875.94036-.61458.94036s-.625-.23738-.625-.94036v-.88557c0-.68473.22916-.9221.61458-.9221C22.89583,18.62143,23.125,18.86792,23.125,19.55265Z"/><path d="M17,9.6622v.6756C17,12.07243,18.36458,12,18.5,12c.14583,0,1.5.08156,1.5-1.6622V9.6622C20,7.92757,18.63542,8,18.5,8,18.35417,8,17,7.91844,17,9.6622Zm2.125-.10955v.88557c0,.703-.21875.94036-.61458.94036s-.625-.23738-.625-.94036V9.55265c0-.68473.22916-.9221.61458-.9221C18.89583,8.62143,19.125,8.86792,19.125,9.55265Z"/><polyline points="17 1.59 17 2.237 18 2 18 5 19 5 19 1"/><polyline points="17 15.59 17 16.237 18 16 18 19 19 19 19 15"/><path d="M8,10a2,2,0,1,1-2,2,2.00588,2.00588,0,0,1,2-2m0,9c2.7,0,5.8,1.29,6,2v1H2V21c.2-.72,3.3-2,6-2M8,8a4,4,0,1,0,4,4A3.9989,3.9989,0,0,0,8,8Zm0,9c-2.67,0-8,1.34-8,4v3H16V21C16,18.34,10.67,17,8,17Z"/></svg>