<svg xmlns="http://www.w3.org/2000/svg" viewBox="0 0 24 24" fill="currentColor"><path d="M24,11.02107c0,1.01253-2.46242,1.83334-5.5,1.83334S13,12.0336,13,11.02107V9.18774c0,1.01253,2.46242,1.83333,5.5,1.83333s5.5-.8208,5.5-1.83333"/><path d="M18.5,6.13728c-3.03517,0-5.5-.825-5.5-1.83332V7.94443c0,1.00833,2.46486,1.83332,5.5,1.83332s5.5-.825,5.5-1.83332V4.304C24,5.31229,21.5352,6.13728,18.5,6.13728Z"/><path d="M24,1.83333C24,.82081,21.53758,0,18.5,0S13,.82081,13,1.83333V3.05556c0,1.01252,2.46242,1.83333,5.5,1.83333S24,4.06808,24,3.05556"/><path d="M11,22.02107c0,1.01253-2.46242,1.83334-5.5,1.83334S0,23.0336,0,22.02107V20.18774c0,1.01253,2.46242,1.83333,5.5,1.83333s5.5-.8208,5.5-1.83333Z"/><path d="M5.5,17.13728c-3.03517,0-5.5-.825-5.5-1.83332v3.64047c0,1.00833,2.46486,1.83332,5.5,1.83332s5.5-.825,5.5-1.83332V15.304C11,16.31229,8.5352,17.13728,5.5,17.13728Z"/><path d="M11,12.83333C11,11.82081,8.53758,11,5.5,11S0,11.82081,0,12.83333v1.22223c0,1.01252,2.46242,1.83333,5.5,1.83333s5.5-.82081,5.5-1.83333Z"/><polygon points="20 21 18 21 18 18.41 15.41 21 14 19.59 16.59 17 14 17 14 15 20 15 20 21"/></svg>