<svg xmlns="http://www.w3.org/2000/svg" viewBox="0 0 24 24" fill="currentColor"><path d="M21,5.6622v.6756c0,1.73463,1.36458,1.66159,1.5,1.66159.14583,0,1.5.08217,1.5-1.66159V5.6622c0-1.73463-1.36458-1.66159-1.5-1.66159C22.35417,4.00061,21,3.91844,21,5.6622Zm2.125-.10955v.88557c0,.703-.21875.94036-.61458.94036s-.625-.23738-.625-.94036V5.55265c0-.68473.22916-.9221.61458-.9221C22.89583,4.62143,23.125,4.86792,23.125,5.55265Z"/><path d="M21,12.6622v.6756c0,1.73463,1.36458,1.66159,1.5,1.66159.14583,0,1.5.08217,1.5-1.66159v-.6756c0-1.73463-1.36458-1.66159-1.5-1.66159C22.35417,11.00061,21,10.91844,21,12.6622Zm2.125-.10955v.88557c0,.703-.21875.94036-.61458.94036s-.625-.23738-.625-.94036v-.88557c0-.68473.22916-.9221.61458-.9221C22.89583,11.62143,23.125,11.86792,23.125,12.55265Z"/><path d="M21,19.6622v.6756c0,1.73463,1.36458,1.66159,1.5,1.66159.14583,0,1.5.08217,1.5-1.66159v-.6756c0-1.73463-1.36458-1.66159-1.5-1.66159C22.35417,18.00061,21,17.91844,21,19.6622Zm2.125-.10955v.88557c0,.703-.21875.94036-.61458.94036s-.625-.23738-.625-.94036v-.88557c0-.68473.22916-.9221.61458-.9221C22.89583,18.62143,23.125,18.86792,23.125,19.55265Z"/><path d="M17,9.6622v.6756c0,1.73463,1.36458,1.66159,1.5,1.66159.14583,0,1.5.08217,1.5-1.66159V9.6622c0-1.73463-1.36458-1.66159-1.5-1.66159C18.35417,8.00061,17,7.91844,17,9.6622Zm2.125-.10955v.88557c0,.703-.21875.94036-.61458.94036s-.625-.23738-.625-.94036V9.55265c0-.68473.22916-.9221.61458-.9221C18.89583,8.62143,19.125,8.86792,19.125,9.55265Z"/><polyline points="17 1.59 17 2.237 18 1.999 18 5 19 5 19 1"/><polyline points="17 15.59 17 16.237 18 15.999 18 19 19.001 19 19.001 15"/><path d="M16,21v3H0V21c0-2.66,5.33-4,8-4S16,18.34,16,21Z"/><circle cx="8" cy="12" r="4"/><path d="M17.88544,23.55261c0-.68469.22912-.92206.61456-.92206.39581-.00915.625.23737.625.92206V24H20v-.33783c0-1.73462-1.36456-1.66156-1.5-1.66156-.14581,0-1.5-.08215-1.5,1.66156V24h.88544Z"/></svg>