<svg xmlns="http://www.w3.org/2000/svg" viewBox="0 0 24 24" fill="currentColor"><path d="M21,8H18.41l-1-1H15a2.00587,2.00587,0,0,0-2,2v4a2.00591,2.00591,0,0,0,2,2h6a2.00591,2.00591,0,0,0,2-2V10A2.00587,2.00587,0,0,0,21,8Zm0,5H15V9h2l1,1h3Z"/><path d="M21,17H18.41l-1-1H15a2.00587,2.00587,0,0,0-2,2v4a2.00591,2.00591,0,0,0,2,2h6a2.00591,2.00591,0,0,0,2-2V19A2.00587,2.00587,0,0,0,21,17Zm0,5H15V18h2l1,1h3Z"/><polygon points="8 19 8 12 13 12 13 10 8 10 8 8 6 8 6 21 13 21 13 19 8 19"/><path d="M10,1H7.41l-1-1H4A2.00587,2.00587,0,0,0,2,2V6A2.00591,2.00591,0,0,0,4,8h6a2.00591,2.00591,0,0,0,2-2V3A2.00587,2.00587,0,0,0,10,1Zm0,5H4V2H6L7,3h3Z"/></svg>