<svg xmlns="http://www.w3.org/2000/svg" viewBox="0 0 24 24" fill="currentColor"><path d="M12,18H4V10H20v2.07787a6.93946,6.93946,0,0,1,2,.60307V10a2.00228,2.00228,0,0,0-2-2l-1.4881-.01507L13.21008,4.55437A1.95712,1.95712,0,0,0,14,2.99959a2.03,2.03,0,0,0-1-1.721V0H12V2a.99973.99973,0,1,1-1,1H10a1.95654,1.95654,0,0,0,.79565,1.55919L5.50128,7.98493,4,8a2.00228,2.00228,0,0,0-2,2v8a2.00231,2.00231,0,0,0,2,2h8.08A7.01289,7.01289,0,0,1,12,18.99739,7.06337,7.06337,0,0,1,12,18ZM11.99481,4.9738,12,5c.00568,0,.01093-.02723.0166-.02729L17,8H7Z"/><path d="M15,13.26V12a1,1,0,0,0-2,0v3.408A7.027,7.027,0,0,1,15,13.26Z"/><path d="M18,11a1,1,0,0,0-1,1v.2937A6.99364,6.99364,0,0,1,19,12,1,1,0,0,0,18,11Z"/><path d="M6,11a1,1,0,0,0-1,1v4a1,1,0,0,0,2,0V12A1,1,0,0,0,6,11Z"/><path d="M10,11a1,1,0,0,0-1,1v4a1,1,0,0,0,2,0V12A1,1,0,0,0,10,11Z"/><path d="M23.87871,20.31855l-1.06944-.82983a3.88452,3.88452,0,0,0,.03995-.48988,2.62623,2.62623,0,0,0-.03995-.48987l1.05944-.82983a.25966.25966,0,0,0,.06-.31993l-.99948-1.72958a.25346.25346,0,0,0-.30984-.11L21.38,16.01955a3.41826,3.41826,0,0,0-.84959-.48994L20.34058,14.21a.23873.23873,0,0,0-.23992-.21h-1.999a.25665.25665,0,0,0-.24987.21l-.1899,1.31964a3.9933,3.9933,0,0,0-.84953.48994l-1.23934-.49988a.26174.26174,0,0,0-.30984.11l-.99948,1.72958a.24754.24754,0,0,0,.06.31993l1.05944.82983a4.0133,4.0133,0,0,0,0,.97975l-1.05944.82983a.25962.25962,0,0,0-.06.31993l.99948,1.72958a.25345.25345,0,0,0,.30984.11l1.23934-.49989a3.41828,3.41828,0,0,0,.84953.48988l.1899,1.3197a.24887.24887,0,0,0,.24987.21h1.999a.25666.25666,0,0,0,.24987-.21l.1899-1.3197a3.69246,3.69246,0,0,0,.83959-.48988l1.24935.49989a.26173.26173,0,0,0,.30983-.11l.99948-1.72958A.25969.25969,0,0,0,23.87871,20.31855Zm-4.75753.18a1.49966,1.49966,0,1,1,1.49922-1.49966A1.49745,1.49745,0,0,1,19.12118,20.4985Z"/></svg>