<svg xmlns="http://www.w3.org/2000/svg" viewBox="0 0 24 24" fill="currentColor"><rect x="11" y="8" width="2" height="1"/><rect x="11" y="4" width="2" height="1"/><rect x="11" y="10" width="2" height="1"/><path d="M21,12V9a13.12436,13.12436,0,0,0-8.35364,3H11.35364A13.12436,13.12436,0,0,0,3,9v3a1,1,0,0,0-1,1v2a1,1,0,0,0,1,1v4a13.153,13.153,0,0,1,9,3.55A13.19937,13.19937,0,0,1,21,20V16a1,1,0,0,0,1-1V13A1,1,0,0,0,21,12Z"/><circle cx="9" cy="4" r="1"/><circle cx="15" cy="4" r="1"/><path d="M16,8H8A3.00328,3.00328,0,0,1,5,5V3A3.00328,3.00328,0,0,1,8,0h8a3.00328,3.00328,0,0,1,3,3V5A3.00328,3.00328,0,0,1,16,8ZM8,2A1.0013,1.0013,0,0,0,7,3V5A1.0013,1.0013,0,0,0,8,6h8a1.001,1.001,0,0,0,1-1V3a1.001,1.001,0,0,0-1-1Z"/></svg>