<svg xmlns="http://www.w3.org/2000/svg" viewBox="0 0 24.00001 24.00001" fill="currentColor"><circle cx="7.00001" cy="2" r="1"/><circle cx="3.00001" cy="6" r="1"/><circle cx="12.00001" cy="1" r="1"/><circle cx="17.00001" cy="2" r="1"/><circle cx="21.00001" cy="6" r="1"/><path d="M17.5,24l-.11865-.0287A8.62313,8.62313,0,0,1,11,15.91552V11.69791L17.5,9l6.5,2.6979v4.21761a8.62312,8.62312,0,0,1-6.38135,8.05579ZM13,12.86542v3.14983a6.39634,6.39634,0,0,0,4.5,5.9606,6.39633,6.39633,0,0,0,4.5-5.9606V12.86542l-4.5-1.79309Zm10-.503v0Z"/><circle cx="12.00001" cy="23" r="1"/><path d="M10.4,10.4a.80233.80233,0,0,0,.8-.8V8h1.6a1.60052,1.60052,0,0,0,1.5899-1.50048,6.02687,6.02687,0,0,1,2.35352,1.85717L18,7.833l1.08.45008a7.99665,7.99665,0,1,0-8.39062,11.60028,9.57041,9.57041,0,0,1-.5896-2.20185,5.96146,5.96146,0,0,1-3.99487-6.77667L9.6,14.4V15.2a1.58544,1.58544,0,0,0,.4,1.04522V12H8.8V10.4Z"/><circle cx="3.00001" cy="18" r="1"/><circle cx="7.00001" cy="22" r="1"/><circle cx="1.00001" cy="12" r="1"/></svg>