<svg xmlns="http://www.w3.org/2000/svg" viewBox="0 0 24 24" fill="currentColor"><polygon points="13 11 13 9 11 9 11.025 11 3.5 11 3.5 15 5.5 15 5.5 13 11 13 11 15 13 15 13 13 18.505 13 18.5 15 20.5 15 20.5 11 13 11"/><path d="M12,2a2.5,2.5,0,1,0,2.5,2.5A2.5,2.5,0,0,0,12,2Zm0,3.5a1,1,0,1,1,1-1A1,1,0,0,1,12,5.5Z"/><path d="M4.5,17A2.5,2.5,0,1,0,7,19.5,2.5,2.5,0,0,0,4.5,17Zm0,3.5a1,1,0,1,1,1-1A1,1,0,0,1,4.5,20.5Z"/><path d="M12,17a2.5,2.5,0,1,0,2.5,2.5A2.5,2.5,0,0,0,12,17Zm0,3.5a1,1,0,1,1,1-1A1,1,0,0,1,12,20.5Z"/><path d="M19.5,17A2.5,2.5,0,1,0,22,19.5,2.5,2.5,0,0,0,19.5,17Zm0,3.5a1,1,0,1,1,1-1A1,1,0,0,1,19.5,20.5Z"/></svg>