<svg xmlns="http://www.w3.org/2000/svg" viewBox="0 0 24 24" fill="currentColor"><path d="M15,22.00676H5v-2H15ZM22,4,17.265,9.955l-.22.27-5.63,7.19a2.00112,2.00112,0,1,1-2.83-2.83ZM2.6449,7.2345A10.84274,10.84274,0,0,0,1.19055,15H2V14A9.685,9.685,0,0,1,3.69037,8.48041ZM12,2A10.95848,10.95848,0,0,0,3.88129,5.5965L5.025,6.95953A7.42814,7.42814,0,0,1,10,5a7.43245,7.43245,0,0,1,4.99689,1.97791l3.5509-2.802A10.93584,10.93584,0,0,0,12,2Zm6.83008,9.19971-.2334.28759-.72791.92963A10.11814,10.11814,0,0,1,18,14v1h4.80945a10.879,10.879,0,0,0-1.18237-7.31775Z"/></svg>