<svg xmlns="http://www.w3.org/2000/svg" viewBox="0 0 24 24" fill="currentColor"><circle cx="5" cy="19" r="1"/><rect x="4" y="4" width="2" height="9"/><path d="M7,2H3A1,1,0,0,0,2,3V21a1,1,0,0,0,1,1H7a1,1,0,0,0,1-1V3A1,1,0,0,0,7,2ZM7,21H3V3H7Z"/><circle cx="12" cy="19" r="1"/><rect x="11" y="4" width="2" height="9"/><path d="M14,2H10A1,1,0,0,0,9,3V21a1,1,0,0,0,1,1h4a1,1,0,0,0,1-1V3A1,1,0,0,0,14,2Zm0,19H10V3h4Z"/><circle cx="19" cy="19" r="1"/><rect x="18" y="4" width="2" height="9"/><path d="M21,2H17a1,1,0,0,0-1,1V21a1,1,0,0,0,1,1h4a1,1,0,0,0,1-1V3A1,1,0,0,0,21,2Zm0,19H17V3h4Z"/></svg>