<svg xmlns="http://www.w3.org/2000/svg" viewBox="0 0 24 24" fill="currentColor"><path d="M21,6.24261V2H16.75739l1.41088,1.41089L13.33405,8.24512A3.93757,3.93757,0,0,0,8.14288,10.9953H5.72009a2.00033,2.00033,0,1,0,.00507,2H8.14a3.94008,3.94008,0,0,0,5.20423,2.75647l4.83069,4.83069L16.75739,22H21V17.75732l-1.41089,1.41095-4.57043-4.57043a3.96651,3.96651,0,0,0,.84137-1.60254L18,13v2l3-3L18,9v2l-2.14288-.0047a3.96785,3.96785,0,0,0-.84442-1.6004l4.56982-4.56977ZM12,14a2,2,0,1,1,2-2A2,2,0,0,1,12,14Z"/></svg>