<svg xmlns="http://www.w3.org/2000/svg" viewBox="0 0 24 24" fill="currentColor"><path d="M23,19a4,4,0,0,1-4,4H17V21h2a2,2,0,0,0,0-4H17V15h2A4,4,0,0,1,23,19Z"/><path d="M9,19a4,4,0,0,1,4-4h2v2H13a2,2,0,0,0,0,4h2v2H13A4,4,0,0,1,9,19Z"/><rect x="14" y="18" width="4" height="2"/><path d="M9,5a3,3,0,1,0,3,3A3.00879,3.00879,0,0,0,9,5ZM9,9a1,1,0,1,1,1-1A1.003,1.003,0,0,1,9,9Z"/><path d="M5.31,15A7.01113,7.01113,0,0,1,9,13.88a5.641,5.641,0,0,1,.77789.06415A5.96518,5.96518,0,0,1,13,13h.25433A9.39757,9.39757,0,0,0,9,11.89c-2.03,0-6,1.07-6,3.58V17H7.34875a5.98581,5.98581,0,0,1,1.18812-2Z"/><path d="M16,2H11.82A2.98811,2.98811,0,0,0,6.18,2H2A2.00587,2.00587,0,0,0,0,4V18a2.00591,2.00591,0,0,0,2,2H7.14142a3.60628,3.60628,0,0,1,0-2H2V4H16v9h2V4A2.00587,2.00587,0,0,0,16,2ZM9,3.25a.7555.7555,0,0,1-.75-.75.75007.75007,0,0,1,1.5,0A.7555.7555,0,0,1,9,3.25Z"/></svg>