<svg xmlns="http://www.w3.org/2000/svg" viewBox="0 0 24 24" fill="currentColor"><path d="M9.74,23.53,5.96,19.76a.97615.97615,0,0,1-.95.75,1.003,1.003,0,0,1-1-1,.987.987,0,0,1,.75-.95L1.25,15.05a5.99979,5.99979,0,0,1,8.49,8.48Z"/><path d="M22.46,12.45,19.52,9.51l.86-.86a1.95552,1.95552,0,0,0,0-2.76L18.9,4.41a1.96777,1.96777,0,0,0-2.77,0l-.85.85L12.33,2.32a1.67179,1.67179,0,0,0-2.36,0L6.2,6.09a1.67179,1.67179,0,0,0,0,2.36L9.15,11.4,9,11.54a1.94965,1.94965,0,0,0,0,2.77l.74.74.74005.74a1.95545,1.95545,0,0,0,2.76,0l.15-.15L16.33,18.58a1.67773,1.67773,0,0,0,2.37,0L22.46,14.82A1.66593,1.66593,0,0,0,22.46,12.45ZM7.38,7.27,11.15,3.5l2.94,2.95-3.76,3.76ZM17.52,17.4l-2.95-2.94,3.77-3.77,2.94,2.94Z"/></svg>