<svg xmlns="http://www.w3.org/2000/svg" viewBox="0 0 24 24" fill="currentColor"><path d="M22.4649,12.44958,19.521,9.50574l.85492-.85486A1.95406,1.95406,0,0,0,20.376,5.88745L18.89667,4.4082a1.954,1.954,0,0,0-2.76337.00006l-.85486.85486L12.33453,2.31927A1.67561,1.67561,0,0,0,9.9679,2.31921L6.20129,6.08582a1.67569,1.67569,0,0,0,0,2.36669l2.94385,2.94391-.14789.14789a1.954,1.954,0,0,0-.00006,2.76337l.739.739a6,6,0,0,0-8.48468.00061l3.51178,3.51178a.9862.9862,0,0,0-.75013.94959,1,1,0,0,0,1,1,.98619.98619,0,0,0,.94959-.75013l3.77405,3.774a6.00015,6.00015,0,0,0,.0003-8.485l.73932.73932a1.95406,1.95406,0,0,0,2.76343,0l.14789-.14795,2.94384,2.94391a1.67578,1.67578,0,0,0,2.36676,0l3.76654-3.76661A1.67568,1.67568,0,0,0,22.4649,12.44958ZM9.35931,20.3266,4.45752,15.4248a4.00589,4.00589,0,0,1,4.90179,4.9018ZM7.38489,7.26941,11.151,3.50281l2.94391,2.94378-3.76636,3.76648Zm4.44726,7.0448L10.418,12.9l.11536-.11535,1.18341-1.18335,3.76641-3.76648,1.18348-1.18347.82238-.82239L18.9032,7.24316l-.82239.82239L16.8974,9.249l-3.76648,3.76648-1.18335,1.18335Zm5.68354,3.08606-2.94458-2.94464,3.76654-3.76648,2.94372,2.94354Z"/></svg>