<svg xmlns="http://www.w3.org/2000/svg" viewBox="0 0 24 24" fill="currentColor"><path d="M23,18l-2.4,3.2A1.8163,1.8163,0,0,1,19,22H12a1.003,1.003,0,0,1-1-1V15a1.003,1.003,0,0,1,1-1h7a2.08754,2.08754,0,0,1,1.6.8Z"/><path d="M21,6H3V2H21ZM2,1V7H22V1"/><rect x="4" y="3" width="2" height="2"/><polygon points="3 14 3 10 21 10 21 13.33 22 14.667 22 9 2 9 2 15 9 15 9 14 3 14"/><rect x="4" y="11" width="2" height="2"/><rect x="4" y="19" width="2" height="2"/><polygon points="3 22 3 18 9 18 9 17 2 17 2 23 9 23 9 22 3 22"/></svg>