<svg xmlns="http://www.w3.org/2000/svg" viewBox="0 0 24 24" fill="currentColor"><rect x="14" y="18" width="4" height="2"/><path d="M19,15H17v2h2a2,2,0,0,1,0,4H17v2h2a4,4,0,0,0,0-8Z"/><path d="M13,17h2V15H13a4,4,0,0,0,0,8h2V21H13a2,2,0,0,1,0-4Z"/><path d="M6,4A1,1,0,1,1,5,3,1,1,0,0,1,6,4Z"/><path d="M16,4a1,1,0,1,1-1-1A1,1,0,0,1,16,4Z"/><path d="M6,20a1,1,0,1,1-1-1A1,1,0,0,1,6,20Z"/><path d="M9.69061,24H3a2,2,0,0,1-2-2V2A2,2,0,0,1,3,0H17a2,2,0,0,1,2,2V13H17V2H3V22H7.81183A6.03966,6.03966,0,0,0,9.69061,24Z"/><path d="M14.57788,13A4.99759,4.99759,0,1,0,6,14H9v.54059A5.9687,5.9687,0,0,1,13,13ZM10,13a2,2,0,1,1,2-2A2,2,0,0,1,10,13Z"/></svg>