<svg xmlns="http://www.w3.org/2000/svg" viewBox="0 0 20 20" fill="none"><path d="M13 17H14.5C15.8807 17 17 15.8807 17 14.5V13H13V17Z" fill="currentColor"/><path d="M13 12V8H17V12H13Z" fill="currentColor"/><path d="M12 12H8V8H12V12Z" fill="currentColor"/><path d="M8 13H12V17H8V13Z" fill="currentColor"/><path d="M7 12V8H3V12H7Z" fill="currentColor"/><path d="M3 13H7V17H5.5C4.11929 17 3 15.8807 3 14.5V13Z" fill="currentColor"/><path d="M13 7H17V5.5C17 4.11929 15.8807 3 14.5 3H13V7Z" fill="currentColor"/><path d="M12 3V7H8V3H12Z" fill="currentColor"/><path d="M7 3V7H3V5.5C3 4.11929 4.11929 3 5.5 3H7Z" fill="currentColor"/></svg>