<svg viewBox="0 0 24 24"><g fill="none"><rect x="2" y="2" width="20" height="20" rx="1" stroke="currentColor" stroke-width="2"/><rect x="2" y="2" width="20" height="20" rx="10" stroke="currentColor" stroke-width="2"/><path d="M15 9.5c.5-.333.9-1.7.5-2.5S13.333 5.667 13 5.5m1 5c1.5-2 0-3.5-2.5-5c-1.546-.927 2-1.5 4.5.5c1.875 1.5 1 2.5-2 5.5v-1z" stroke="currentColor" stroke-width="2"/><path d="M8.985 14.402c-.5.333-.9 1.7-.5 2.5s2.167 1.333 2.5 1.5m-1-5c-1.5 2 0 3.5 2.5 5c1.546.927-2 1.5-4.5-.5c-1.875-1.5-1-2.5 2-5.5v1z" stroke="currentColor" stroke-width="2"/><path d="M9.542 8.944c-.334-.5-1.7-.9-2.5-.5s-1.334 2.166-1.5 2.5m5-1c-2-1.5-3.5 0-5 2.5c-.928 1.546-1.5-2 .5-4.5c1.5-1.875 2.5-1 5.5 2h-1z" stroke="currentColor" stroke-width="2"/><path d="M14.444 14.958c.333.5 1.7.9 2.5.5s1.333-2.166 1.5-2.5m-5 1c2 1.5 3.5 0 5-2.5c.927-1.546 1.5 2-.5 4.5c-1.5 1.876-2.5 1-5.5-2h1z" stroke="currentColor" stroke-width="2"/><path clip-rule="evenodd" d="M3.5 5a1.5 1.5 0 1 0 0-3a1.5 1.5 0 0 0 0 3z" stroke="currentColor" stroke-width="2"/><path clip-rule="evenodd" d="M3.5 22a1.5 1.5 0 1 0 0-3a1.5 1.5 0 0 0 0 3z" stroke="currentColor" stroke-width="2"/><path clip-rule="evenodd" d="M20.5 22a1.5 1.5 0 1 0 0-3a1.5 1.5 0 0 0 0 3z" stroke="currentColor" stroke-width="2"/><path clip-rule="evenodd" d="M20.5 5a1.5 1.5 0 1 0 0-3a1.5 1.5 0 0 0 0 3z" stroke="currentColor" stroke-width="2"/><path clip-rule="evenodd" d="M12 14a2 2 0 1 0 0-4a2 2 0 0 0 0 4z" stroke="currentColor" stroke-width="2"/></g></svg>