<svg viewBox="0 0 24 24"><g fill="none"><path d="M20 22H4" stroke="currentColor" stroke-width="2" stroke-linecap="round"/><path d="M15.5 18v3" stroke="currentColor" stroke-width="2"/><path d="M8 21.5V18" stroke="currentColor" stroke-width="2"/><path clip-rule="evenodd" d="M12 19a9 9 0 1 0 0-18a9 9 0 0 0 0 18z" stroke="currentColor" stroke-width="2"/><path clip-rule="evenodd" d="M12 16a6 6 0 1 0 0-12a6 6 0 0 0 0 12z" stroke="currentColor" stroke-width="2"/><path clip-rule="evenodd" d="M12 14a4 4 0 1 0 0-8a4 4 0 0 0 0 8z" stroke="currentColor" stroke-width="2"/><path clip-rule="evenodd" d="M12 11a1 1 0 1 0 0-2a1 1 0 0 0 0 2z" stroke="currentColor" stroke-width="2"/></g></svg>