<svg xmlns="http://www.w3.org/2000/svg" xmlns:xlink="http://www.w3.org/1999/xlink" version="1.1" viewBox="0 0 16 16" fill="currentColor"><path fill="currentColor" d="M9 3h6v2h-6v-2z"/><path fill="currentColor" d="M9 11h6v2h-6v-2z"/><path fill="currentColor" d="M5 1h-2v2h-2v2h2v2h2v-2h2v-2h-2z"/><path fill="currentColor" d="M7 10.4l-1.4-1.4-1.6 1.6-1.6-1.6-1.4 1.4 1.6 1.6-1.6 1.6 1.4 1.4 1.6-1.6 1.6 1.6 1.4-1.4-1.6-1.6z"/><path fill="currentColor" d="M13 14.5c0 0.552-0.448 1-1 1s-1-0.448-1-1c0-0.552 0.448-1 1-1s1 0.448 1 1z"/><path fill="currentColor" d="M13 9.5c0 0.552-0.448 1-1 1s-1-0.448-1-1c0-0.552 0.448-1 1-1s1 0.448 1 1z"/></svg>