<svg xmlns="http://www.w3.org/2000/svg" xmlns:xlink="http://www.w3.org/1999/xlink" version="1.1" viewBox="0 0 16 16" fill="currentColor"><path fill="currentColor" d="M3 0h1v3h-1v-3z"/><path fill="currentColor" d="M11 0h1v3h-1v-3z"/><path fill="currentColor" d="M9 14.1c0-0.1 0-0.1 0 0l-8-0.1v-8h13v1.2c0.4 0.1 0.7 0.3 1 0.6v-6.8h-2v3h-3v-3h-5v3h-3v-3h-2v14h9v-0.9z"/><path fill="currentColor" d="M15 10c0 1.105-0.895 2-2 2s-2-0.895-2-2c0-1.105 0.895-2 2-2s2 0.895 2 2z"/><path fill="currentColor" d="M13.9 12h-1.8c-1.1 0-2.1 0.9-2.1 2.1v1.9h6v-1.9c0-1.2-0.9-2.1-2.1-2.1z"/></svg>