<svg xmlns="http://www.w3.org/2000/svg" xmlns:xlink="http://www.w3.org/1999/xlink" version="1.1" viewBox="0 0 16 16" fill="currentColor"><path fill="currentColor" d="M15 3v10h-14v-10h14zM16 2h-16v12h16v-12z"/><path fill="currentColor" d="M9 5h5v1h-5v-1z"/><path fill="currentColor" d="M9 7h5v1h-5v-1z"/><path fill="currentColor" d="M9 9h2v1h-2v-1z"/><path fill="currentColor" d="M6.5 5c0 0 0 0 0 0-0.6 0-1.1 0.6-1.5 1-0.4-0.4-0.9-1-1.5-1 0 0 0 0 0 0-1.5 0-2.1 1.9-1 2.9l2.5 2.1 2.5-2.1c1.1-1 0.5-2.9-1-2.9z"/></svg>