<svg xmlns="http://www.w3.org/2000/svg" xmlns:xlink="http://www.w3.org/1999/xlink" version="1.1" viewBox="0 0 16 16" fill="currentColor"><path fill="currentColor" d="M15 5v7h-14v-7h14zM16 4h-16v9h16v-9z"/><path fill="currentColor" d="M4 10h8v1h-8v-1z"/><path fill="currentColor" d="M2 10h1v1h-1v-1z"/><path fill="currentColor" d="M13 10h1v1h-1v-1z"/><path fill="currentColor" d="M11 8h1v1h-1v-1z"/><path fill="currentColor" d="M9 8h1v1h-1v-1z"/><path fill="currentColor" d="M7 8h1v1h-1v-1z"/><path fill="currentColor" d="M5 8h1v1h-1v-1z"/><path fill="currentColor" d="M3 8h1v1h-1v-1z"/><path fill="currentColor" d="M10 6h1v1h-1v-1z"/><path fill="currentColor" d="M12 6v1h1v2h1v-3z"/><path fill="currentColor" d="M8 6h1v1h-1v-1z"/><path fill="currentColor" d="M6 6h1v1h-1v-1z"/><path fill="currentColor" d="M4 6h1v1h-1v-1z"/><path fill="currentColor" d="M2 6h1v1h-1v-1z"/></svg>