<svg xmlns="http://www.w3.org/2000/svg" xmlns:xlink="http://www.w3.org/1999/xlink" version="1.1" viewBox="0 0 16 16" fill="currentColor"><path fill="currentColor" d="M15 2v1h-1v-1h-1v1h-1v-1h-1v1h-1v-1h-1v1h-1v-1h-1v1h-1v-1h-1v1h-1v-1h-1v1h-1v-1h-1v1h-1v13h16v-14h-1zM15 15h-14v-11h14v11z"/><path fill="currentColor" d="M15 0h1v1h-1v-1z"/><path fill="currentColor" d="M14 1h1v1h-1v-1z"/><path fill="currentColor" d="M13 0h1v1h-1v-1z"/><path fill="currentColor" d="M12 1h1v1h-1v-1z"/><path fill="currentColor" d="M11 0h1v1h-1v-1z"/><path fill="currentColor" d="M10 1h1v1h-1v-1z"/><path fill="currentColor" d="M9 0h1v1h-1v-1z"/><path fill="currentColor" d="M8 1h1v1h-1v-1z"/><path fill="currentColor" d="M7 0h1v1h-1v-1z"/><path fill="currentColor" d="M6 1h1v1h-1v-1z"/><path fill="currentColor" d="M5 0h1v1h-1v-1z"/><path fill="currentColor" d="M4 1h1v1h-1v-1z"/><path fill="currentColor" d="M3 0h1v1h-1v-1z"/><path fill="currentColor" d="M2 1h1v1h-1v-1z"/><path fill="currentColor" d="M1 0h1v1h-1v-1z"/><path fill="currentColor" d="M0 1h1v1h-1v-1z"/></svg>