<svg xmlns="http://www.w3.org/2000/svg" xmlns:xlink="http://www.w3.org/1999/xlink" version="1.1" viewBox="0 0 16 16" fill="currentColor"><path fill="currentColor" d="M0 0v14h1v-1h1v1h1v-1h1v1h1v-1h1v1h1v-1h1v1h1v-1h1v1h1v-1h1v1h1v-1h1v1h1v-1h1v-13h-16zM15 12h-14v-11h14v11z"/><path fill="currentColor" d="M0 15h1v1h-1v-1z"/><path fill="currentColor" d="M1 14h1v1h-1v-1z"/><path fill="currentColor" d="M2 15h1v1h-1v-1z"/><path fill="currentColor" d="M3 14h1v1h-1v-1z"/><path fill="currentColor" d="M4 15h1v1h-1v-1z"/><path fill="currentColor" d="M5 14h1v1h-1v-1z"/><path fill="currentColor" d="M6 15h1v1h-1v-1z"/><path fill="currentColor" d="M7 14h1v1h-1v-1z"/><path fill="currentColor" d="M8 15h1v1h-1v-1z"/><path fill="currentColor" d="M9 14h1v1h-1v-1z"/><path fill="currentColor" d="M10 15h1v1h-1v-1z"/><path fill="currentColor" d="M11 14h1v1h-1v-1z"/><path fill="currentColor" d="M12 15h1v1h-1v-1z"/><path fill="currentColor" d="M13 14h1v1h-1v-1z"/><path fill="currentColor" d="M14 15h1v1h-1v-1z"/><path fill="currentColor" d="M15 14h1v1h-1v-1z"/></svg>