<svg xmlns="http://www.w3.org/2000/svg" xmlns:xlink="http://www.w3.org/1999/xlink" version="1.1" viewBox="0 0 16 16" fill="currentColor"><path fill="currentColor" d="M0 0v16h16v-16h-16zM15 3h-1v1h1v11h-14v-12h1v-1h-1v-1h1v1h1v-1h1v1h1v-1h1v1h1v-1h1v1h1v-1h1v1h1v-1h1v1h1v-1h1v1h1v1z"/><path fill="currentColor" d="M3 2h1v1h-1v-1z"/><path fill="currentColor" d="M2 3h1v1h-1v-1z"/><path fill="currentColor" d="M4 3h1v1h-1v-1z"/><path fill="currentColor" d="M6 3h1v1h-1v-1z"/><path fill="currentColor" d="M5 2h1v1h-1v-1z"/><path fill="currentColor" d="M7 2h1v1h-1v-1z"/><path fill="currentColor" d="M9 2h1v1h-1v-1z"/><path fill="currentColor" d="M8 3h1v1h-1v-1z"/><path fill="currentColor" d="M10 3h1v1h-1v-1z"/><path fill="currentColor" d="M12 3h1v1h-1v-1z"/><path fill="currentColor" d="M11 2h1v1h-1v-1z"/><path fill="currentColor" d="M13 2h1v1h-1v-1z"/></svg>