<svg xmlns="http://www.w3.org/2000/svg" xmlns:xlink="http://www.w3.org/1999/xlink" version="1.1" viewBox="0 0 16 16" fill="currentColor"><path fill="currentColor" d="M16 16v-16h-16v16h16zM1 13h1v-1h-1v-11h14v12h-1v1h1v1h-1v-1h-1v1h-1v-1h-1v1h-1v-1h-1v1h-1v-1h-1v1h-1v-1h-1v1h-1v-1h-1v1h-1v-1h-1v-1z"/><path fill="currentColor" d="M12 13h1v1h-1v-1z"/><path fill="currentColor" d="M13 12h1v1h-1v-1z"/><path fill="currentColor" d="M11 12h1v1h-1v-1z"/><path fill="currentColor" d="M9 12h1v1h-1v-1z"/><path fill="currentColor" d="M10 13h1v1h-1v-1z"/><path fill="currentColor" d="M8 13h1v1h-1v-1z"/><path fill="currentColor" d="M6 13h1v1h-1v-1z"/><path fill="currentColor" d="M7 12h1v1h-1v-1z"/><path fill="currentColor" d="M5 12h1v1h-1v-1z"/><path fill="currentColor" d="M3 12h1v1h-1v-1z"/><path fill="currentColor" d="M4 13h1v1h-1v-1z"/><path fill="currentColor" d="M2 13h1v1h-1v-1z"/></svg>