<svg xmlns="http://www.w3.org/2000/svg" xmlns:xlink="http://www.w3.org/1999/xlink" version="1.1" viewBox="0 0 16 16" fill="currentColor"><path fill="currentColor" d="M15 7h1v1h-1v-1z"/><path fill="currentColor" d="M13 7h1v1h-1v-1z"/><path fill="currentColor" d="M11 7h1v1h-1v-1z"/><path fill="currentColor" d="M9 7h1v1h-1v-1z"/><path fill="currentColor" d="M14 6h1v1h-1v-1z"/><path fill="currentColor" d="M12 6h1v1h-1v-1z"/><path fill="currentColor" d="M10 6h1v1h-1v-1z"/><path fill="currentColor" d="M15 5h1v1h-1v-1z"/><path fill="currentColor" d="M13 5h1v1h-1v-1z"/><path fill="currentColor" d="M11 5h1v1h-1v-1z"/><path fill="currentColor" d="M14 4h1v1h-1v-1z"/><path fill="currentColor" d="M12 4h1v1h-1v-1z"/><path fill="currentColor" d="M15 3h1v1h-1v-1z"/><path fill="currentColor" d="M13 3h1v1h-1v-1z"/><path fill="currentColor" d="M14 2h1v1h-1v-1z"/><path fill="currentColor" d="M15 1h1v1h-1v-1z"/><path fill="currentColor" d="M7 15h1v1h-1v-1z"/><path fill="currentColor" d="M5 15h1v1h-1v-1z"/><path fill="currentColor" d="M3 15h1v1h-1v-1z"/><path fill="currentColor" d="M1 15h1v1h-1v-1z"/><path fill="currentColor" d="M6 14h1v1h-1v-1z"/><path fill="currentColor" d="M4 14h1v1h-1v-1z"/><path fill="currentColor" d="M2 14h1v1h-1v-1z"/><path fill="currentColor" d="M7 13h1v1h-1v-1z"/><path fill="currentColor" d="M5 13h1v1h-1v-1z"/><path fill="currentColor" d="M3 13h1v1h-1v-1z"/><path fill="currentColor" d="M6 12h1v1h-1v-1z"/><path fill="currentColor" d="M4 12h1v1h-1v-1z"/><path fill="currentColor" d="M7 11h1v1h-1v-1z"/><path fill="currentColor" d="M5 11h1v1h-1v-1z"/><path fill="currentColor" d="M6 10h1v1h-1v-1z"/><path fill="currentColor" d="M7 9h1v1h-1v-1z"/><path fill="currentColor" d="M15 15h1v1h-1v-1z"/><path fill="currentColor" d="M13 15h1v1h-1v-1z"/><path fill="currentColor" d="M11 15h1v1h-1v-1z"/><path fill="currentColor" d="M9 15h1v1h-1v-1z"/><path fill="currentColor" d="M14 14h1v1h-1v-1z"/><path fill="currentColor" d="M12 14h1v1h-1v-1z"/><path fill="currentColor" d="M10 14h1v1h-1v-1z"/><path fill="currentColor" d="M8 14h1v1h-1v-1z"/><path fill="currentColor" d="M15 13h1v1h-1v-1z"/><path fill="currentColor" d="M13 13h1v1h-1v-1z"/><path fill="currentColor" d="M11 13h1v1h-1v-1z"/><path fill="currentColor" d="M9 13h1v1h-1v-1z"/><path fill="currentColor" d="M14 12h1v1h-1v-1z"/><path fill="currentColor" d="M12 12h1v1h-1v-1z"/><path fill="currentColor" d="M10 12h1v1h-1v-1z"/><path fill="currentColor" d="M8 12h1v1h-1v-1z"/><path fill="currentColor" d="M15 11h1v1h-1v-1z"/><path fill="currentColor" d="M13 11h1v1h-1v-1z"/><path fill="currentColor" d="M11 11h1v1h-1v-1z"/><path fill="currentColor" d="M9 11h1v1h-1v-1z"/><path fill="currentColor" d="M14 10h1v1h-1v-1z"/><path fill="currentColor" d="M12 10h1v1h-1v-1z"/><path fill="currentColor" d="M10 10h1v1h-1v-1z"/><path fill="currentColor" d="M8 10h1v1h-1v-1z"/><path fill="currentColor" d="M15 9h1v1h-1v-1z"/><path fill="currentColor" d="M13 9h1v1h-1v-1z"/><path fill="currentColor" d="M11 9h1v1h-1v-1z"/><path fill="currentColor" d="M9 9h1v1h-1v-1z"/><path fill="currentColor" d="M14 8h1v1h-1v-1z"/><path fill="currentColor" d="M12 8h1v1h-1v-1z"/><path fill="currentColor" d="M10 8h1v1h-1v-1z"/><path fill="currentColor" d="M8 8h1v1h-1v-1z"/></svg>