<svg xmlns="http://www.w3.org/2000/svg" xmlns:xlink="http://www.w3.org/1999/xlink" version="1.1" x="0px" y="0px" viewBox="0 0 612 612" enable-background="new 0 0 612 612" xml:space="preserve" fill="currentColor"><g transform="matrix(15 0 0 15 -2684 -3824.0001)"></g><g transform="matrix(3.75 0 0 -3.75 -1784 3242.35815)"><path d="M538.208,706.531c-5.298,0-9.563,4.265-9.563,9.563v38.25h-38.25c-5.298,0-9.563,4.265-9.563,9.563v38.25 c0,5.298,4.265,9.563,9.563,9.563h38.25v38.25c0,5.298,4.265,9.563,9.563,9.563h38.25c5.298,0,9.563-4.265,9.563-9.563v-38.25 h38.25c5.298,0,9.563-4.265,9.563-9.563v-38.25c0-5.298-4.265-9.563-9.563-9.563h-38.25v-38.25c0-5.298-4.265-9.563-9.563-9.563 H538.208z M538.208,749.562h38.25l-19.125,19.125L538.208,749.562z M538.208,773.468h38.25l-19.125,19.125L538.208,773.468z M538.208,797.375h38.25L557.333,816.5L538.208,797.375z"/></g></svg>