<svg xmlns="http://www.w3.org/2000/svg" xmlns:xlink="http://www.w3.org/1999/xlink" version="1.1" x="0px" y="0px" viewBox="0 0 612 612" enable-background="new 0 0 612 612" xml:space="preserve" fill="currentColor"><g transform="matrix(15 0 0 15 14.53975 -4364)"><g><path d="M26.602,311.333c0,4.225-3.211,7.65-7.172,7.65s-7.172-3.425-7.172-7.65s3.211-7.65,7.172-7.65 S26.602,307.108,26.602,311.333L26.602,311.333z"/><path d="M19.431,292.208c1.793,5.737,3.586,5.737,3.586,9.563c0,0-1.793,1.913-3.586,1.913s-3.586-1.913-3.586-1.913 C15.845,297.946,17.638,297.946,19.431,292.208z"/><path d="M19.431,330.458c-1.793-5.737-3.586-5.737-3.586-9.563c0,0,1.793-1.913,3.586-1.913s3.586,1.913,3.586,1.913 C23.017,324.721,21.224,324.721,19.431,330.458z"/></g></g></svg>