<svg xmlns="http://www.w3.org/2000/svg" xmlns:xlink="http://www.w3.org/1999/xlink" version="1.1" x="0px" y="0px" viewBox="0 0 612 612" enable-background="new 0 90 612 612" xml:space="preserve" fill="currentColor"><g transform="matrix(15 0 0 15 -524 -8374.4329)"><g><path d="M60.115,578.719c0-2.641-2.141-4.781-4.781-4.781c-2.641,0-4.781,2.141-4.781,4.781c0,2.641,2.141,4.781,4.781,4.781 C57.974,583.5,60.115,581.36,60.115,578.719z"/><path d="M36.208,593.063v2.391h38.25v-2.391c0-1.195-1.195-2.391-2.391-2.391h-2.391l-4.781-4.781l-4.781,4.781l-4.781-4.781 l-4.781,4.781l-4.781-4.781l-4.781,4.781h-2.391C37.404,590.672,36.208,591.867,36.208,593.063z"/></g></g></svg>