<svg xmlns="http://www.w3.org/2000/svg" xmlns:xlink="http://www.w3.org/1999/xlink" version="1.1" x="0px" y="0px" viewBox="0 0 613 613" enable-background="new 0 0 613 613" xml:space="preserve" fill="currentColor"><path d="M305.796,159.752c-129.339,0-321.534-114.816-291.084,161.754h0.001c10.89,98.916,95.127,154.081,168.599,128.144 c39.412-13.913,88.589-106.312,122.485-106.312s83.073,92.4,122.485,106.312c73.47,25.935,156.237-29.451,168.599-128.144 C631.615,44.163,431.161,159.752,305.796,159.752z M86.051,254.001c51.876-51.177,103.753-46.882,155.629,0 C189.804,319.35,111.989,298.28,86.051,254.001z M364.167,254.001c51.877-46.882,103.753-51.177,155.629,0 C493.858,298.28,416.043,319.35,364.167,254.001z"/></svg>