<svg xmlns="http://www.w3.org/2000/svg" xmlns:xlink="http://www.w3.org/1999/xlink" version="1.1" x="0px" y="0px" viewBox="0 0 612 612" enable-background="new 0 0 612 612" xml:space="preserve" fill="currentColor"><g transform="matrix(15 0 0 15 -3764 -44)"><path d="M271.333,11.38c-2.694,0-4.932,1.808-5.678,4.258c-0.814-0.416-1.713-0.672-2.689-0.672c-3.301,0-5.977,2.676-5.977,5.977 c0,0.142,0.028,0.271,0.037,0.411c-2.804,0.975-4.819,3.625-4.819,6.761c0,3.961,3.211,7.172,7.172,7.172h23.906 c3.961,0,7.172-3.211,7.172-7.172c0-3.136-2.015-5.786-4.819-6.761c0.01-0.14,0.037-0.269,0.037-0.411 c0-3.301-2.676-5.977-5.977-5.977c-0.977,0-1.875,0.257-2.689,0.672C276.265,13.188,274.028,11.38,271.333,11.38z M266.552,18.552 l4.781,4.781l4.781-4.781l2.391,2.391l-4.781,4.781l4.781,4.781l-2.391,2.391l-4.781-4.781l-4.781,4.781l-2.391-2.391l4.781-4.781 l-4.781-4.781L266.552,18.552z"/></g></svg>