<svg xmlns="http://www.w3.org/2000/svg" xmlns:xlink="http://www.w3.org/1999/xlink" version="1.1" x="0px" y="0px" viewBox="0 0 613 613" enable-background="new 0 0 613 613" xml:space="preserve" fill="currentColor"><g><path d="M136.295,423.327c-23.364,2.161-32.592,14.934-35.254,30.895l65.112,62.407l0.935,0.978l0.043-0.042l8.747,8.384 c21.785-2.002,34.507-12.375,32.1-31.657L136.295,423.327z"/><path d="M36.342,532.256c-20.005,32.27,17.579,73.136,61.088,53.366l61.071-59.632l-53.637-56.156L36.342,532.256z"/><path d="M307.852,30.056c422.137,330.946,20.24,488.762-105.021,350.53l-50.309,45.831l52.097,54.543l2.538-2.479 C467.545,712.24,847.354,185.371,307.852,30.056z"/></g></svg>